<svg width="1453px" height="210px" viewBox="0 0 1453 210" version="1.1" xmlns="http://www.w3.org/2000/svg" xmlns:xlink="http://www.w3.org/1999/xlink">
    <!-- Generator: Sketch 51.3 (57544) - http://www.bohemiancoding.com/sketch -->
    <desc>Created with Sketch.</desc>
    <defs></defs>
    <g id="primary-brands" stroke="none" stroke-width="1" fill="none" fill-rule="evenodd">
        <path d="M41.3703231,172.111152 C43.3150916,172.287949 45.5692212,172.420545 48.1327797,172.508943 C50.6963382,172.597342 53.746043,172.64154 57.2819858,172.64154 C77.9672507,172.64154 93.3041722,167.426103 103.29321,156.995072 C113.282249,146.564041 118.276693,132.155291 118.276693,113.768388 C118.276693,94.4975005 113.503242,79.9119556 103.956196,70.0113159 C94.409151,60.1106763 79.2932226,55.1604307 58.6079577,55.1604307 C55.7792035,55.1604307 52.8620945,55.2046294 49.8565432,55.2930279 C46.8509918,55.3814265 44.0222801,55.6024196 41.3703231,55.9560139 L41.3703231,172.111152 Z M160.972988,113.768388 C160.972988,129.680131 158.497865,143.558498 153.547545,155.403906 C148.597225,167.249314 141.569645,177.061408 132.464592,184.840482 C123.35954,192.619556 112.265686,198.453774 99.1826976,202.343311 C86.0997095,206.232848 71.4257673,208.177587 55.1604307,208.177587 C47.734951,208.177587 39.0720213,207.868197 29.1713816,207.249407 C19.270742,206.630617 9.54704536,205.348857 0,203.404088 L0,24.3978828 C9.54704536,22.6299115 19.4917351,21.4365487 29.8343676,20.8177587 C40.1770001,20.1989687 49.0609229,19.8895784 56.4864026,19.8895784 C72.2213478,19.8895784 86.4975024,21.6575232 99.3152948,25.193466 C112.133087,28.7294087 123.138544,34.2984349 132.331995,41.9007118 C141.525446,49.5029887 148.597225,59.2266853 153.547545,71.0720934 C158.497865,82.9175016 160.972988,97.1494576 160.972988,113.768388 Z M186.166454,137.105494 C186.166454,124.729694 188.066994,113.901032 191.868133,104.619182 C195.669271,95.3373327 200.663715,87.602574 206.851615,81.4146742 C213.039515,75.2267744 220.155493,70.5417206 228.199763,67.3593721 C236.244032,64.1770237 244.509175,62.5858733 252.995437,62.5858733 C272.796716,62.5858733 288.443028,68.6410844 299.934842,80.7516883 C311.426656,92.8622921 317.172477,110.674336 317.172477,134.188356 C317.172477,136.486718 317.084079,139.00604 316.907282,141.746395 C316.730485,144.486751 316.553691,146.917675 316.376894,149.039241 L226.741194,149.039241 C227.625179,157.171909 231.426261,163.624908 238.144552,168.39843 C244.862843,173.171953 253.879362,175.558679 265.194379,175.558679 C272.443061,175.558679 279.559039,174.895699 286.542526,173.569721 C293.526013,172.243742 299.227635,170.608393 303.647563,168.663625 L308.951451,200.752145 C306.829885,201.812927 304.001174,202.873694 300.465231,203.934477 C296.929288,204.99526 292.995611,205.923431 288.664081,206.719018 C284.332551,207.514605 279.691696,208.177584 274.741376,208.707976 C269.791056,209.238367 264.840811,209.503559 259.890491,209.503559 C247.337894,209.503559 236.420835,207.647217 227.138985,203.934477 C217.857136,200.221737 210.166575,195.138896 204.067074,188.6858 C197.967573,182.232705 193.459314,174.586343 190.542161,165.746487 C187.625008,156.90663 186.166454,147.359728 186.166454,137.105494 Z M278.984486,121.989414 C278.807689,118.630269 278.233107,115.359571 277.260723,112.177222 C276.288339,108.994874 274.785585,106.166162 272.752418,103.691002 C270.719251,101.215842 268.155731,99.1827055 265.061781,97.5915313 C261.967831,96.0003571 258.122551,95.2047819 253.525826,95.2047819 C249.105897,95.2047819 245.304816,95.9561585 242.122468,97.4589341 C238.940119,98.9617098 236.288202,100.950648 234.166636,103.425808 C232.045071,105.900968 230.409722,108.773878 229.26054,112.044625 C228.111359,115.315372 227.271585,118.630269 226.741194,121.989414 L278.984486,121.989414 Z M341.039971,136.044716 C341.039971,125.967279 342.67532,116.464576 345.946067,107.53632 C349.216814,98.6080651 353.946066,90.8291078 360.133966,84.1992152 C366.321866,77.5693226 373.835631,72.3096867 382.675488,68.4201497 C391.515345,64.5306127 401.592631,62.5858733 412.907647,62.5858733 C420.333127,62.5858733 427.139715,63.2488527 433.327615,64.5748312 C439.515514,65.9008097 445.526527,67.8013504 451.360832,70.2765103 L443.139807,101.834641 C439.427067,100.420264 435.360794,99.1827029 430.940865,98.1219201 C426.520937,97.0611372 421.570691,96.5307538 416.08998,96.5307538 C404.421369,96.5307538 395.714241,100.155041 389.968334,107.403723 C384.222427,114.652406 381.349516,124.199308 381.349516,136.044716 C381.349516,148.597313 384.045632,158.32101 389.437945,165.216098 C394.830258,172.111186 404.244564,175.558679 417.681146,175.558679 C422.454669,175.558679 427.581709,175.116692 433.06242,174.232707 C438.543131,173.348721 443.581774,171.934365 448.1785,169.989597 L453.747582,202.343311 C449.150856,204.288079 443.405035,205.967627 436.509947,207.382004 C429.614859,208.796381 422.012696,209.503559 413.703231,209.503559 C400.973837,209.503559 390.012579,207.603018 380.819128,203.80188 C371.625676,200.000741 364.067712,194.829503 358.145008,188.288009 C352.222304,181.746515 347.890839,174.011756 345.150484,165.083501 C342.410128,156.155245 341.039971,146.475747 341.039971,136.044716 Z M610.742654,135.779522 C610.742654,146.740944 609.151503,156.774031 605.969155,165.879084 C602.786807,174.984136 598.19015,182.763094 592.179047,189.216189 C586.167945,195.669285 578.963569,200.663729 570.565705,204.199671 C562.167841,207.735614 552.753535,209.503559 542.322504,209.503559 C532.06827,209.503559 522.742361,207.735614 514.344497,204.199671 C505.946633,200.663729 498.742258,195.669285 492.731155,189.216189 C486.720053,182.763094 482.034999,174.984136 478.675853,165.879084 C475.316708,156.774031 473.63716,146.740944 473.63716,135.779522 C473.63716,124.818099 475.360906,114.829211 478.80845,105.812557 C482.255995,96.7959031 487.029446,89.105343 493.128947,82.7406461 C499.228448,76.3759492 506.477022,71.4257036 514.874886,67.8897609 C523.27275,64.3538182 532.421864,62.5858733 542.322504,62.5858733 C552.399941,62.5858733 561.637453,64.3538182 570.035317,67.8897609 C578.433181,71.4257036 585.637556,76.3759492 591.648659,82.7406461 C597.659761,89.105343 602.344815,96.7959031 605.703961,105.812557 C609.063106,114.829211 610.742654,124.818099 610.742654,135.779522 Z M570.433108,135.779522 C570.433108,123.580519 568.002184,113.989419 563.140263,107.005932 C558.278342,100.022445 551.339158,96.5307538 542.322504,96.5307538 C533.30585,96.5307538 526.322468,100.022445 521.372148,107.005932 C516.421828,113.989419 513.946706,123.580519 513.946706,135.779522 C513.946706,147.978524 516.421828,157.658022 521.372148,164.818306 C526.322468,171.97859 533.30585,175.558679 542.322504,175.558679 C551.339158,175.558679 558.278342,171.97859 563.140263,164.818306 C568.002184,157.658022 570.433108,147.978524 570.433108,135.779522 Z M767.207337,41.6355174 C769.328903,48.8842 771.67143,57.0609449 774.234988,66.1659974 C776.798547,75.27105 779.538861,84.6853563 782.456014,94.4091988 C785.373167,104.133041 788.334474,113.856738 791.340026,123.58058 C794.345577,133.304423 797.262686,142.320942 800.09144,150.630407 C802.389803,141.613753 804.73233,131.801659 807.119091,121.193831 C809.505852,110.586003 811.759982,99.6247448 813.881548,88.3097281 C816.003113,76.9947113 818.080449,65.7240629 820.113616,54.4974448 C822.146783,43.2708266 824.047323,32.4421645 825.815295,22.0111334 L868.776784,22.0111334 C862.588884,52.7738351 855.472906,83.9780616 847.428637,115.624749 C839.384367,147.271436 830.677239,177.326499 821.30699,205.790838 L783.384194,205.790838 C777.196294,188.818313 771.185282,171.006268 765.350976,152.35417 C759.516671,133.702073 753.77085,115.006056 748.113342,96.2655594 C742.455833,115.006056 736.79841,133.702073 731.140902,152.35417 C725.483393,171.006268 719.560778,188.818313 713.372878,205.790838 L675.450082,205.790838 C666.079834,177.326499 657.372706,147.271436 649.328436,115.624749 C641.284166,83.9780616 634.168188,52.7738351 627.980288,22.0111334 L672.798138,22.0111334 C674.56611,32.4421645 676.510849,43.2708266 678.632415,54.4974448 C680.75398,65.7240629 682.963911,76.9947113 685.262274,88.3097281 C687.560637,99.6247448 689.903164,110.586003 692.289925,121.193831 C694.676687,131.801659 697.107611,141.613753 699.582771,150.630407 C702.765119,141.967347 705.859023,132.774034 708.864574,123.050192 C711.870125,113.326349 714.787234,103.602653 717.615988,93.87881 C720.444743,84.1549675 723.052461,74.7848598 725.439222,65.7682059 C727.825984,56.7515519 729.991716,48.7074029 731.936485,41.6355174 L767.207337,41.6355174 Z M945.948348,178.210622 C949.837885,178.210622 953.550569,178.122225 957.086512,177.945428 C960.622455,177.768631 963.451167,177.503439 965.572732,177.149845 L965.572732,147.18288 C963.981558,146.829286 961.594832,146.475697 958.412484,146.122103 C955.230136,145.768508 952.313027,145.591714 949.66107,145.591714 C945.94833,145.591714 942.456639,145.812707 939.185892,146.2547 C935.915145,146.696693 933.042234,147.536466 930.567074,148.774046 C928.091914,150.011626 926.147175,151.691174 924.732798,153.81274 C923.318421,155.934305 922.611243,158.586222 922.611243,161.768571 C922.611243,167.956471 924.688578,172.243737 928.843311,174.630498 C932.998044,177.01726 938.699666,178.210622 945.948348,178.210622 Z M942.766016,62.5858733 C954.434627,62.5858733 964.158323,63.911832 971.937397,66.563789 C979.716471,69.2157461 985.948477,73.0168275 990.633601,77.9671473 C995.318725,82.9174671 998.633622,88.9284796 1000.57839,96.000365 C1002.52316,103.07225 1003.49553,110.939605 1003.49553,119.602665 L1003.49553,201.812922 C997.83802,203.050502 989.970665,204.509057 979.893229,206.188629 C969.815792,207.868202 957.616972,208.707976 943.296404,208.707976 C934.279751,208.707976 926.103006,207.912401 918.765924,206.321227 C911.428843,204.730052 905.10844,202.122334 899.804526,198.497992 C894.500612,194.873651 890.434339,190.144399 887.605585,184.310093 C884.776831,178.475788 883.362475,171.315611 883.362475,162.829348 C883.362475,154.69668 884.997824,147.801695 888.268571,142.144187 C891.539318,136.486679 895.914981,131.978419 901.395693,128.619274 C906.876404,125.260128 913.152608,122.829204 920.224494,121.326428 C927.296379,119.823653 934.63335,119.072276 942.235627,119.072276 C947.362744,119.072276 951.915202,119.293269 955.893137,119.735262 C959.871073,120.177255 963.097572,120.751837 965.572732,121.459025 L965.572732,117.746304 C965.572732,111.028013 963.539596,105.635781 959.473262,101.569447 C955.406927,97.5031128 948.335148,95.4699763 938.257711,95.4699763 C931.53942,95.4699763 924.909627,95.9561611 918.368133,96.9285454 C911.826639,97.9009296 906.169215,99.2710869 901.395693,101.039058 L896.356999,69.2157328 C898.655362,68.5085443 901.528273,67.7571677 904.975817,66.9615806 C908.423361,66.1659935 912.180244,65.4588155 916.246578,64.8400256 C920.312912,64.2212356 924.600178,63.6908521 929.108505,63.2488593 C933.616832,62.8068664 938.16929,62.5858733 942.766016,62.5858733 Z M1094.98759,208.442782 C1083.49578,208.265984 1074.16987,207.028423 1067.00958,204.73006 C1059.8493,202.431697 1054.19187,199.205198 1050.03714,195.050465 C1045.88241,190.895733 1043.0537,185.85709 1041.55092,179.934386 C1040.04815,174.011682 1039.29677,167.33769 1039.29677,159.91221 L1039.29677,6.36466508 L1078.81073,0 L1078.81073,151.956379 C1078.81073,155.492322 1079.07592,158.674622 1079.60632,161.503377 C1080.13671,164.332131 1081.15327,166.718856 1082.65605,168.663625 C1084.15883,170.608393 1086.32456,172.199544 1089.15331,173.437124 C1091.98207,174.674704 1095.78315,175.470279 1100.55667,175.823873 L1094.98759,208.442782 Z M1178.78901,208.442782 C1167.2972,208.265984 1157.97129,207.028423 1150.81101,204.73006 C1143.65072,202.431697 1137.9933,199.205198 1133.83857,195.050465 C1129.68383,190.895733 1126.85512,185.85709 1125.35235,179.934386 C1123.84957,174.011682 1123.09819,167.33769 1123.09819,159.91221 L1123.09819,6.36466508 L1162.61216,0 L1162.61216,151.956379 C1162.61216,155.492322 1162.87735,158.674622 1163.40774,161.503377 C1163.93813,164.332131 1164.9547,166.718856 1166.45747,168.663625 C1167.96025,170.608393 1170.12598,172.199544 1172.95474,173.437124 C1175.78349,174.674704 1179.58457,175.470279 1184.35809,175.823873 L1178.78901,208.442782 Z M1200.26976,137.105494 C1200.26976,124.729694 1202.1703,113.901032 1205.97144,104.619182 C1209.77257,95.3373327 1214.76702,87.602574 1220.95492,81.4146742 C1227.14282,75.2267744 1234.2588,70.5417206 1242.30307,67.3593721 C1250.34734,64.1770237 1258.61248,62.5858733 1267.09874,62.5858733 C1286.90002,62.5858733 1302.54633,68.6410844 1314.03815,80.7516883 C1325.52996,92.8622921 1331.27578,110.674336 1331.27578,134.188356 C1331.27578,136.486718 1331.18738,139.00604 1331.01059,141.746395 C1330.83379,144.486751 1330.65699,146.917675 1330.4802,149.039241 L1240.8445,149.039241 C1241.72848,157.171909 1245.52956,163.624908 1252.24786,168.39843 C1258.96615,173.171953 1267.98267,175.558679 1279.29768,175.558679 C1286.54636,175.558679 1293.66234,174.895699 1300.64583,173.569721 C1307.62932,172.243742 1313.33094,170.608393 1317.75087,168.663625 L1323.05475,200.752145 C1320.93319,201.812927 1318.10448,202.873694 1314.56853,203.934477 C1311.03259,204.99526 1307.09891,205.923431 1302.76738,206.719018 C1298.43585,207.514605 1293.795,208.177584 1288.84468,208.707976 C1283.89436,209.238367 1278.94411,209.503559 1273.99379,209.503559 C1261.4412,209.503559 1250.52414,207.647217 1241.24229,203.934477 C1231.96044,200.221737 1224.26988,195.138896 1218.17038,188.6858 C1212.07088,182.232705 1207.56262,174.586343 1204.64546,165.746487 C1201.72831,156.90663 1200.26976,147.359728 1200.26976,137.105494 Z M1293.08779,121.989414 C1292.91099,118.630269 1292.33641,115.359571 1291.36403,112.177222 C1290.39164,108.994874 1288.88889,106.166162 1286.85572,103.691002 C1284.82255,101.215842 1282.25903,99.1827055 1279.16508,97.5915313 C1276.07113,96.0003571 1272.22585,95.2047819 1267.62913,95.2047819 C1263.2092,95.2047819 1259.40812,95.9561585 1256.22577,97.4589341 C1253.04342,98.9617098 1250.39151,100.950648 1248.26994,103.425808 C1246.14837,105.900968 1244.51303,108.773878 1243.36384,112.044625 C1242.21466,115.315372 1241.37489,118.630269 1240.8445,121.989414 L1293.08779,121.989414 Z M1360.44716,31.558131 L1399.96112,25.193466 L1399.96112,66.2985946 L1447.43092,66.2985946 L1447.43092,99.1826976 L1399.96112,99.1826976 L1399.96112,148.243658 C1399.96112,156.553123 1401.41968,163.182916 1404.33683,168.133236 C1407.25398,173.083556 1413.1324,175.558679 1421.97226,175.558679 C1426.21539,175.558679 1430.59105,175.160891 1435.09938,174.365304 C1439.60771,173.569717 1443.71818,172.464751 1447.43092,171.050374 L1453,201.812922 C1448.22648,203.757691 1442.92264,205.437238 1437.08834,206.851615 C1431.25403,208.265992 1424.09386,208.97317 1415.60759,208.97317 C1404.82297,208.97317 1395.89485,207.514616 1388.82296,204.597463 C1381.75107,201.68031 1376.09365,197.614037 1371.85052,192.398522 C1367.60739,187.183006 1364.64608,180.862603 1362.96651,173.437124 C1361.28694,166.011644 1360.44716,157.7907 1360.44716,148.774046 L1360.44716,31.558131 Z" id="DecoWallet-Copy" fill="#13AB67"></path>
    </g>
</svg>