<svg width="189px" height="222px" viewBox="0 0 189 222" version="1.1" xmlns="http://www.w3.org/2000/svg" xmlns:xlink="http://www.w3.org/1999/xlink">
    <!-- Generator: Sketch 51.3 (57544) - http://www.bohemiancoding.com/sketch -->
    <desc>Created with Sketch.</desc>
    <defs></defs>
    <g id="primary-brands" stroke="none" stroke-width="1" fill="none" fill-rule="evenodd">
        <path d="M48.5733114,179.228435 C50.8566836,179.436015 53.5032798,179.591697 56.5131796,179.695487 C59.5230793,179.799276 63.1037684,179.85117 67.2553542,179.85117 C91.5421313,179.85117 109.549365,173.727673 121.277595,161.480495 C133.005825,149.233317 138.869852,132.315858 138.869852,110.727612 C138.869852,88.101469 133.265295,70.9764343 122.056013,59.351994 C110.846731,47.7275536 93.0989682,41.9154207 68.8121911,41.9154207 C65.4909224,41.9154207 62.0659155,41.9673147 58.5370675,42.0711043 C55.0082196,42.174894 51.6870007,42.4343642 48.5733114,42.8495228 L48.5733114,179.228435 Z M189,110.727612 C189,129.409748 186.093934,145.704478 180.281713,159.612291 C174.469493,173.520103 166.21834,185.040581 155.528007,194.17407 C144.837673,203.307559 131.812268,210.157572 116.4514,214.724317 C101.090533,219.291061 83.86171,221.574399 64.7644152,221.574399 C56.0460849,221.574399 45.8748522,221.211141 34.2504119,220.484613 C22.6259715,219.758086 11.2092817,218.253159 0,215.969786 L0,5.79680451 C11.2092817,3.7210116 22.8854418,2.3198724 35.0288303,1.59334488 C47.1722189,0.866817355 57.6029218,0.503559044 66.3212521,0.503559044 C84.795809,0.503559044 101.557585,2.57932082 116.607084,6.73090665 C131.656583,10.8824925 144.5782,17.4211421 155.372323,26.3470516 C166.166446,35.2729612 174.469493,46.689651 180.281713,60.5974635 C186.093934,74.505276 189,91.2151584 189,110.727612 Z" id="D" fill="#13AB67"></path>
    </g>
</svg>